<?xml version="1.0" encoding="utf-8"?>
<svg version="1.1" xmlns="http://www.w3.org/2000/svg" viewBox="0 0 96 96">
  <defs>
    <linearGradient id="shieldGrad" x1="0" y1="0" x2="1" y2="1">
      <stop offset="0" stop-color="#63a4f8"/>
      <stop offset="1" stop-color="#2f6fd0"/>
    </linearGradient>
    <linearGradient id="gloss" x1="0" y1="0" x2="0" y2="1">
      <stop offset="0" stop-color="#ffffff" stop-opacity="0.38"/>
      <stop offset="0.55" stop-color="#ffffff" stop-opacity="0"/>
    </linearGradient>
    <linearGradient id="shade" x1="0" y1="0" x2="0" y2="1">
      <stop offset="0.55" stop-color="#0b2a5c" stop-opacity="0"/>
      <stop offset="1" stop-color="#0b2a5c" stop-opacity="0.22"/>
    </linearGradient>
    <clipPath id="shieldClip">
      <path d="M12 10 H84 V50 C84 73 66 86 48 93 C30 86 12 73 12 50 Z"/>
    </clipPath>
  </defs>
  <path d="M12 10 H84 V50 C84 73 66 86 48 93 C30 86 12 73 12 50 Z" fill="url(#shieldGrad)"/>
  <g clip-path="url(#shieldClip)">
    <rect x="12" y="10" width="72" height="42" fill="url(#gloss)"/>
    <rect x="12" y="50" width="72" height="43" fill="url(#shade)"/>
  </g>
  <g fill="#1b4a99" opacity="0.35" transform="translate(0,1.5)">
    <rect x="43.5" y="22" width="9" height="36" rx="4.5"/>
    <rect x="43.5" y="22" width="9" height="36" rx="4.5" transform="rotate(60 48 40)"/>
    <rect x="43.5" y="22" width="9" height="36" rx="4.5" transform="rotate(-60 48 40)"/>
    <rect x="34" y="63" width="28" height="9" rx="3"/>
  </g>
  <g fill="#ffffff">
    <rect x="43.5" y="22" width="9" height="36" rx="4.5"/>
    <rect x="43.5" y="22" width="9" height="36" rx="4.5" transform="rotate(60 48 40)"/>
    <rect x="43.5" y="22" width="9" height="36" rx="4.5" transform="rotate(-60 48 40)"/>
    <rect x="34" y="63" width="28" height="9" rx="3"/>
  </g>
</svg>
